<?xml version="1.0" encoding="UTF-8" standalone="no"?>
<!DOCTYPE svg PUBLIC "-//W3C//DTD SVG 1.1//EN" "http://www.w3.org/Graphics/SVG/1.1/DTD/svg11.dtd">
<svg version="1.1" xmlns="http://www.w3.org/2000/svg" xmlns:xlink="http://www.w3.org/1999/xlink" preserveAspectRatio="xMidYMid meet" viewBox="0 0 600 350" width="600" height="350"><defs><path d="M164.14 45.92L167.8 46.16L171.43 46.48L175.03 46.9L178.61 47.4L182.16 47.99L185.67 48.67L189.16 49.44L192.61 50.29L196.03 51.22L199.41 52.24L202.76 53.34L206.07 54.51L209.34 55.77L212.57 57.1L215.76 58.51L218.91 60L222.02 61.56L225.08 63.19L228.09 64.89L231.06 66.67L233.98 68.51L236.86 70.42L239.68 72.4L242.45 74.45L245.16 76.56L247.83 78.73L250.44 80.97L252.99 83.27L255.49 85.63L257.92 88.04L260.3 90.52L262.62 93.05L264.87 95.64L267.06 98.28L269.19 100.98L271.25 103.72L273.25 106.52L275.18 109.37L275.65 110.1L253.75 123.58L252.62 121.85L250.05 118.24L247.36 114.73L244.53 111.33L241.57 108.05L238.49 104.87L235.3 101.82L231.98 98.89L228.56 96.08L225.02 93.41L221.38 90.87L217.64 88.46L213.8 86.2L209.87 84.08L205.85 82.11L201.74 80.29L197.55 78.63L193.28 77.12L188.94 75.78L184.53 74.61L180.05 73.61L175.5 72.78L170.89 72.12L166.23 71.65L161.52 71.37L156.76 71.27L151.99 71.37L147.28 71.65L142.62 72.12L138.01 72.78L133.47 73.61L128.99 74.61L124.57 75.78L120.23 77.12L115.96 78.63L111.77 80.29L107.66 82.11L103.64 84.08L99.71 86.2L95.87 88.46L92.13 90.87L88.49 93.41L84.96 96.08L81.53 98.89L78.22 101.82L75.02 104.87L71.94 108.05L68.98 111.33L66.16 114.73L63.46 118.24L60.9 121.85L58.47 125.56L56.19 129.36L54.05 133.26L52.06 137.25L50.23 141.32L48.55 145.48L47.04 149.71L45.68 154.02L44.5 158.4L43.49 162.84L42.65 167.35L42 171.92L41.52 176.54L41.23 181.21L41.14 185.94L41.23 190.66L41.52 195.34L42 199.96L42.65 204.53L43.49 209.03L44.5 213.48L45.68 217.86L47.04 222.16L48.55 226.4L50.23 230.55L52.06 234.63L54.05 238.61L56.19 242.51L58.47 246.32L60.9 250.03L63.46 253.64L66.16 257.14L68.98 260.54L71.94 263.83L75.02 267L78.22 270.05L81.53 272.99L84.96 275.79L88.49 278.47L92.13 281.01L95.87 283.41L99.71 285.68L103.64 287.79L107.66 289.77L111.77 291.58L115.96 293.25L120.23 294.75L124.57 296.09L128.99 297.27L133.47 298.27L138.01 299.1L142.62 299.75L147.28 300.22L151.99 300.51L156.76 300.6L161.52 300.51L166.23 300.22L170.89 299.75L175.5 299.1L180.05 298.27L184.53 297.27L188.94 296.09L193.28 294.75L197.55 293.25L201.74 291.58L205.85 289.77L209.87 287.79L213.8 285.68L217.64 283.41L221.38 281.01L225.02 278.47L228.56 275.79L231.98 272.99L235.3 270.05L238.49 267L241.57 263.83L244.53 260.54L247.36 257.14L250.05 253.64L252.62 250.03L255.04 246.32L256 244.72L277.92 258.13L276.94 259.77L273.97 264.3L270.84 268.72L267.54 273L264.08 277.16L260.47 281.18L256.7 285.06L252.79 288.79L248.74 292.37L244.55 295.8L240.23 299.08L235.78 302.18L231.2 305.12L226.51 307.89L221.7 310.48L216.79 312.89L211.76 315.12L206.64 317.15L201.42 318.99L196.11 320.63L190.71 322.06L185.23 323.29L179.68 324.31L174.04 325.1L168.34 325.68L162.58 326.02L156.76 326.14L150.93 326.02L145.17 325.68L139.47 325.1L133.84 324.31L128.28 323.29L122.8 322.06L117.4 320.63L112.09 318.99L106.87 317.15L101.75 315.12L96.73 312.89L91.81 310.48L87 307.89L82.31 305.12L77.74 302.18L73.29 299.08L68.96 295.8L64.77 292.37L60.72 288.79L56.81 285.06L53.05 281.18L49.43 277.16L45.97 273L42.68 268.72L39.54 264.3L36.58 259.77L33.79 255.11L31.17 250.35L28.74 245.47L26.5 240.49L24.45 235.41L22.6 230.23L20.94 224.97L19.5 219.61L18.26 214.18L17.24 208.67L16.43 203.08L15.85 197.43L15.5 191.71L15.38 185.94L15.5 180.16L15.85 174.45L16.43 168.79L17.24 163.21L18.26 157.7L19.5 152.26L20.94 146.91L22.6 141.64L24.45 136.47L26.5 131.39L28.74 126.4L31.17 121.53L33.79 116.76L36.58 112.11L39.54 107.57L42.68 103.16L45.97 98.87L49.43 94.72L53.05 90.7L56.81 86.82L60.72 83.08L64.77 79.5L68.96 76.07L73.29 72.8L77.74 69.69L82.31 66.75L87 63.98L91.81 61.39L96.73 58.98L101.75 56.76L106.87 54.72L112.09 52.89L117.4 51.25L122.8 49.81L128.28 48.58L133.84 47.57L139.47 46.77L145.17 46.2L150.93 45.85L156.76 45.73L160.46 45.78L164.14 45.92ZM454.83 46.2L460.53 46.77L466.16 47.57L471.72 48.58L477.2 49.81L482.6 51.25L487.91 52.89L493.13 54.72L498.25 56.76L503.27 58.98L508.19 61.39L513 63.98L517.69 66.75L522.26 69.69L526.71 72.8L531.04 76.07L535.23 79.5L539.28 83.08L543.19 86.82L546.95 90.7L550.57 94.72L554.03 98.87L557.32 103.16L560.46 107.57L563.42 112.11L566.21 116.76L568.83 121.53L571.26 126.4L573.5 131.39L575.55 136.47L577.4 141.64L579.06 146.91L580.5 152.26L581.74 157.7L582.76 163.21L583.57 168.79L584.15 174.45L584.5 180.16L584.62 185.94L584.5 191.71L584.15 197.43L583.57 203.08L582.76 208.67L581.74 214.18L580.5 219.61L579.06 224.97L577.4 230.23L575.55 235.41L573.5 240.49L571.26 245.47L568.83 250.35L566.21 255.11L563.42 259.77L560.46 264.3L557.32 268.72L554.03 273L550.57 277.16L546.95 281.18L543.19 285.06L539.28 288.79L535.23 292.37L531.04 295.8L526.71 299.08L522.26 302.18L517.69 305.12L513 307.89L508.19 310.48L503.27 312.89L498.25 315.12L493.13 317.15L487.91 318.99L482.6 320.63L477.2 322.06L471.72 323.29L466.16 324.31L460.53 325.1L454.83 325.68L449.07 326.02L443.24 326.14L437.42 326.02L431.66 325.68L425.96 325.1L420.32 324.31L414.77 323.29L409.29 322.06L403.89 320.63L398.58 318.99L393.36 317.15L388.24 315.12L383.21 312.89L378.3 310.48L373.49 307.89L368.8 305.12L364.22 302.18L359.77 299.08L355.45 295.8L351.26 292.37L347.21 288.79L343.3 285.06L339.53 281.18L335.92 277.16L332.46 273L329.16 268.72L326.03 264.3L323.06 259.77L321.83 257.72L343.71 244.24L344.96 246.32L347.38 250.03L349.95 253.64L352.64 257.14L355.47 260.54L358.43 263.83L361.51 267L364.7 270.05L368.02 272.99L371.44 275.79L374.98 278.47L378.62 281.01L382.36 283.41L386.2 285.68L390.13 287.79L394.15 289.77L398.26 291.58L402.45 293.25L406.72 294.75L411.06 296.09L415.47 297.27L419.95 298.27L424.5 299.1L429.11 299.75L433.77 300.22L438.48 300.51L443.24 300.6L448.01 300.51L452.72 300.22L457.38 299.75L461.99 299.1L466.53 298.27L471.01 297.27L475.43 296.09L479.77 294.75L484.04 293.25L488.23 291.58L492.34 289.77L496.36 287.79L500.29 285.68L504.13 283.41L507.87 281.01L511.51 278.47L515.04 275.79L518.47 272.99L521.78 270.05L524.98 267L528.06 263.83L531.02 260.54L533.84 257.14L536.54 253.64L539.1 250.03L541.53 246.32L543.81 242.51L545.95 238.61L547.94 234.63L549.77 230.55L551.45 226.4L552.96 222.16L554.32 217.86L555.5 213.48L556.51 209.03L557.35 204.53L558 199.96L558.48 195.34L558.77 190.66L558.86 185.94L558.77 181.21L558.48 176.54L558 171.92L557.35 167.35L556.51 162.84L555.5 158.4L554.32 154.02L552.96 149.71L551.45 145.48L549.77 141.32L547.94 137.25L545.95 133.26L543.81 129.36L541.53 125.56L539.1 121.85L536.54 118.24L533.84 114.73L531.02 111.33L528.06 108.05L524.98 104.87L521.78 101.82L518.47 98.89L515.04 96.08L511.51 93.41L507.87 90.87L504.13 88.46L500.29 86.2L496.36 84.08L492.34 82.11L488.23 80.29L484.04 78.63L479.77 77.12L475.43 75.78L471.01 74.61L466.53 73.61L461.99 72.78L457.38 72.12L452.72 71.65L448.01 71.37L443.24 71.27L438.48 71.37L433.77 71.65L429.11 72.12L424.5 72.78L419.95 73.61L415.47 74.61L411.06 75.78L406.72 77.12L402.45 78.63L398.26 80.29L394.15 82.11L390.13 84.08L386.2 86.2L382.36 88.46L378.62 90.87L374.98 93.41L371.44 96.08L368.02 98.89L364.7 101.82L361.51 104.87L358.43 108.05L355.47 111.33L352.64 114.73L349.95 118.24L347.56 121.6L325.63 108.18L326.03 107.57L329.16 103.16L332.46 98.87L335.92 94.72L339.53 90.7L343.3 86.82L347.21 83.08L351.26 79.5L355.45 76.07L359.77 72.8L364.22 69.69L368.8 66.75L373.49 63.98L378.3 61.39L383.21 58.98L388.24 56.76L393.36 54.72L398.58 52.89L403.89 51.25L409.29 49.81L414.77 48.58L420.32 47.57L425.96 46.77L431.66 46.2L437.42 45.85L443.24 45.73L449.07 45.85L454.83 46.2ZM314.61 127.79L314.71 127.56L315.08 127.79L314.61 127.79Z" id="a3IKqUxMgV"></path><path d="M431.14 139.48L431.69 139.54L432.24 139.61L432.78 139.71L433.31 139.83L433.84 139.97L434.35 140.14L434.86 140.32L435.36 140.51L435.85 140.73L436.32 140.97L436.79 141.22L437.25 141.49L437.69 141.78L438.12 142.09L438.54 142.41L438.95 142.74L439.35 143.09L439.73 143.46L440.09 143.84L440.44 144.23L440.78 144.64L441.1 145.06L441.4 145.49L441.69 145.94L441.96 146.39L442.22 146.86L442.45 147.34L442.67 147.83L442.87 148.33L443.05 148.83L443.21 149.35L443.35 149.88L443.47 150.41L443.57 150.95L443.65 151.5L443.71 152.05L443.74 152.61L443.75 153.18L443.75 220.78L443.74 221.36L443.7 221.94L443.65 222.52L443.57 223.08L443.46 223.64L443.34 224.19L443.19 224.73L443.03 225.27L442.84 225.79L442.64 226.31L442.41 226.81L442.17 227.31L441.9 227.79L441.62 228.26L441.33 228.72L441.01 229.17L440.68 229.6L440.33 230.02L439.97 230.43L439.59 230.82L439.2 231.2L438.79 231.56L438.37 231.91L437.94 232.24L437.49 232.56L437.03 232.85L436.56 233.13L436.08 233.4L435.58 233.64L435.08 233.87L434.56 234.07L434.04 234.26L433.5 234.42L432.96 234.57L432.41 234.69L431.85 234.8L431.29 234.88L430.71 234.93L430.13 234.97L429.55 234.98L170.55 234.98L169.97 234.97L169.39 234.93L168.81 234.88L168.25 234.8L167.69 234.69L167.14 234.57L166.59 234.42L166.06 234.26L165.54 234.07L165.02 233.87L164.52 233.64L164.02 233.4L163.54 233.13L163.07 232.85L162.61 232.56L162.16 232.24L161.73 231.91L161.31 231.56L160.9 231.2L160.51 230.82L160.13 230.43L159.77 230.02L159.42 229.6L159.09 229.17L158.77 228.72L158.48 228.26L158.19 227.79L157.93 227.31L157.69 226.81L157.46 226.31L157.26 225.79L157.07 225.27L156.91 224.73L156.76 224.19L156.64 223.64L156.53 223.08L156.45 222.52L156.39 221.94L156.36 221.36L156.35 220.78L156.35 156.69L156.36 155.98L156.4 155.27L156.47 154.58L156.57 153.89L156.7 153.21L156.85 152.54L157.02 151.88L157.23 151.24L157.45 150.6L157.7 149.97L157.98 149.36L158.27 148.76L158.59 148.17L158.93 147.6L159.29 147.04L159.68 146.5L160.08 145.97L160.5 145.46L160.94 144.97L161.4 144.49L161.88 144.03L162.37 143.59L162.88 143.17L163.41 142.76L163.95 142.38L164.51 142.02L165.09 141.68L165.67 141.36L166.27 141.06L166.89 140.79L167.51 140.54L168.15 140.31L168.8 140.11L169.45 139.94L170.12 139.79L170.8 139.66L171.49 139.56L172.19 139.49L172.89 139.45L173.6 139.43L430.01 139.43L430.57 139.45L431.14 139.48ZM183.36 154.41L182.85 154.44L182.34 154.49L181.84 154.56L181.34 154.66L180.85 154.77L180.37 154.89L179.9 155.04L179.43 155.21L178.98 155.39L178.53 155.59L178.09 155.81L177.66 156.04L177.24 156.29L176.84 156.55L176.44 156.83L176.06 157.12L175.68 157.43L175.32 157.75L174.97 158.09L174.64 158.44L174.32 158.8L174.01 159.17L173.71 159.56L173.44 159.95L173.17 160.36L172.92 160.78L172.69 161.21L172.47 161.64L172.27 162.09L172.09 162.55L171.93 163.01L171.78 163.49L171.65 163.97L171.54 164.46L171.45 164.95L171.38 165.45L171.33 165.96L171.29 166.47L171.28 166.99L171.28 206.74L171.29 207.26L171.33 207.78L171.38 208.28L171.45 208.79L171.54 209.28L171.65 209.77L171.78 210.25L171.93 210.72L172.09 211.19L172.27 211.65L172.47 212.09L172.69 212.53L172.92 212.96L173.17 213.38L173.44 213.78L173.71 214.18L174.01 214.57L174.32 214.94L174.64 215.3L174.97 215.65L175.32 215.98L175.68 216.31L176.06 216.61L176.44 216.91L176.84 217.19L177.24 217.45L177.66 217.7L178.09 217.93L178.53 218.15L178.98 218.35L179.43 218.53L179.9 218.7L180.37 218.84L180.85 218.97L181.34 219.08L181.84 219.17L182.34 219.24L182.85 219.3L183.36 219.33L183.88 219.34L417.46 219.34L417.9 219.33L418.33 219.3L418.75 219.26L419.17 219.2L419.58 219.12L419.99 219.03L420.39 218.92L420.79 218.8L421.17 218.66L421.56 218.51L421.93 218.34L422.29 218.16L422.65 217.97L423 217.76L423.34 217.54L423.67 217.31L423.99 217.06L424.31 216.81L424.61 216.54L424.9 216.26L425.18 215.97L425.45 215.67L425.7 215.35L425.95 215.03L426.18 214.7L426.4 214.36L426.61 214.01L426.8 213.66L426.98 213.29L427.15 212.92L427.3 212.54L427.44 212.15L427.56 211.75L427.67 211.35L427.76 210.94L427.84 210.53L427.9 210.11L427.94 209.69L427.97 209.26L427.98 208.82L427.98 166.32L427.97 165.83L427.94 165.34L427.89 164.86L427.82 164.39L427.73 163.92L427.63 163.46L427.51 163L427.37 162.55L427.21 162.11L427.04 161.68L426.85 161.26L426.65 160.84L426.43 160.44L426.19 160.04L425.94 159.66L425.68 159.28L425.4 158.92L425.11 158.56L424.8 158.22L424.48 157.89L424.15 157.57L423.81 157.27L423.46 156.98L423.1 156.7L422.72 156.44L422.33 156.19L421.94 155.95L421.53 155.73L421.12 155.53L420.7 155.34L420.26 155.16L419.82 155.01L419.37 154.87L418.92 154.75L418.46 154.64L417.99 154.56L417.51 154.49L417.03 154.44L416.55 154.41L416.05 154.4L183.88 154.4L183.36 154.41Z" id="aJ4W3sIRi"></path></defs><g><g><g><use xlink:href="#a3IKqUxMgV" opacity="1" fill="#abad6d" fill-opacity="1"></use></g><g><use xlink:href="#aJ4W3sIRi" opacity="1" fill="#abad6d" fill-opacity="1"></use><g><use xlink:href="#aJ4W3sIRi" opacity="1" fill-opacity="0" stroke="#339956" stroke-width="0" stroke-opacity="1"></use></g></g></g></g></svg>